<?xml version="1.0" encoding="utf-8"?>
<!-- Generator: Adobe Illustrator 25.2.3, SVG Export Plug-In . SVG Version: 6.00 Build 0)  -->
<svg version="1.1" id="katman_1" xmlns="http://www.w3.org/2000/svg" xmlns:xlink="http://www.w3.org/1999/xlink" x="0px" y="0px"
	 viewBox="0 0 512 512" style="enable-background:new 0 0 512 512;" xml:space="preserve">
<style type="text/css">
	.st0{fill:url(#SVGID_1_);stroke:#E5E7EB;stroke-width:2;stroke-miterlimit:10;}
	.st1{fill:url(#SVGID_2_);stroke:#FFFFFF;stroke-width:0.5;stroke-miterlimit:10;}
</style>
<linearGradient id="SVGID_1_" gradientUnits="userSpaceOnUse" x1="135.9888" y1="-314.2241" x2="376.0112" y2="-729.9959" gradientTransform="matrix(1 0 0 -1 0 -266.11)">
	<stop  offset="0" style="stop-color:#6B7280;stop-opacity:0.3"/>
	<stop  offset="0.5003" style="stop-color:#6B7280;stop-opacity:0.4"/>
	<stop  offset="1" style="stop-color:#374151;stop-opacity:0.5"/>
</linearGradient>
<circle class="st0" cx="256" cy="256" r="240"/>
<linearGradient id="SVGID_2_" gradientUnits="userSpaceOnUse" x1="154" y1="1033.8334" x2="358" y2="1033.8334" gradientTransform="matrix(1 0 0 1 0 -778)">
	<stop  offset="0" style="stop-color:#F87171"/>
	<stop  offset="0.45" style="stop-color:#F87171"/>
	<stop  offset="1" style="stop-color:#DC2626"/>
</linearGradient>
<path class="st1" d="M358,426.1L260.5,83.8c0-2.3-2.3-4.5-4.5-4.5c-2.3,0-4.5,2.3-4.5,2.3l0,0L154,423.9c0,2.3,0,4.5,2.3,6.8
	c0,2.3,2.3,2.3,4.5,0l90.7-34c2.3,0,4.5,0,6.8,0l90.7,34c2.3,2.3,4.5,2.3,6.8,0C358,430.7,358,428.4,358,426.1z">
<animateTransform  accumulate="none" additive="replace" attributeName="transform" calcMode="spline" dur="1s" fill="remove" keySplines="0.5 0 0.5 1; 0.5 0 0.5 1" repeatCount="indefinite" restart="always" type="rotate" values="-3 32 32;3 32 32;-3 32 32">
		</animateTransform>
</path>
</svg>
